<svg xmlns="http://www.w3.org/2000/svg" width="26.68" height="26.68" viewBox="0 0 26.68 26.68">
  <path id="Path_32596" data-name="Path 32596" d="M234.667,244.7a7.123,7.123,0,0,0,10.223-.138.928.928,0,0,1,1.19-.221,1,1,0,0,1,.055,1.383,8.828,8.828,0,0,1-12.672.207,8.953,8.953,0,0,1,0-12.534,8.773,8.773,0,0,1,12.534.069.97.97,0,0,1,.249,1.19.9.9,0,0,1-1.383.083c-3.091-2.662-7.164-3.244-10.2-.125A7.228,7.228,0,0,0,234.667,244.7Zm4.982-18.389a13.34,13.34,0,1,1-13.34,13.34A13.34,13.34,0,0,1,239.65,226.31Zm0,1.278a12.062,12.062,0,1,0,12.062,12.062A12.061,12.061,0,0,0,239.65,227.588Z" transform="translate(-226.31 -226.31)" fill="#fff" fill-rule="evenodd"/>
</svg>
