<svg xmlns="http://www.w3.org/2000/svg" width="165.84" height="69.362" viewBox="0 0 165.84 69.362">
  <g id="Group_25163" data-name="Group 25163" transform="translate(-496.175 -160.446)" opacity="0.4">
    <path id="Path_33092" data-name="Path 33092" d="M504.347,202.21c-.077.411.239.505.316.934l-.426.238a3.767,3.767,0,0,1-.776-1.851l-.427.681c-.06-.669-.11-1.229-.164-1.85h-1.177l-.661,1.167a6.7,6.7,0,0,0-.164-.684c-.151-.406-.322-.79-.508-1.241-.128.486-.237.9-.34,1.29h-.409l-.225-1.157-.681-.087c-.479-.786-.9-1.47-1.3-2.13.013-.254.023-.443.039-.764a3.823,3.823,0,0,1,1.5-.148l.428.694c.065-.615.122-1.164.18-1.718.245-.4.546-.078.8-.2l.359-.561.434.634c.056-.694.1-1.256.149-1.822.585.34.727,1.557,1.315,1.76.17.545.17.545.591.485a.644.644,0,0,0,.1-.232c.007-1.014,0-2.027,0-2.977l-.348-.7c0-.443,0-.873.367-.852.293,0,.772.963,1.123,2.324.156.072.314.133.467.222.05.03.086.131.122.191v.629l.491.867c.443-.353.511-1.182.736-1.808.245-.69.736-.672,1.078-1.1l.245.443c.313-.129.271-.609.175-.87-.148-.406-.425-.683-.252-1.291.357-.443.767-.121,1.145-.207l.364-.6c.355-.254.474.4.707.526l.445-.65.595.637c.115-.189.271-.443.436-.709a1.611,1.611,0,0,0-.117-.418,3.1,3.1,0,0,0-1.778-1.306,7.177,7.177,0,0,1-.128-2.088l-.682-.567V184.7c.508-1.112,1.353-1.241,1.934-2.152h2.052l.317-.56h2.423l.305-.539c.519-.331,1.113.211,1.675-.443a2.129,2.129,0,0,0-1.562-.259c-.518-.04-1.037-.009-1.555-.009h-3l-.337-.591h-6.211l-.381-.628h-2.762l-.306-.541h-1.038l-.327-.591-.839-.176c-.033-.253-.07-.529-.144-1.1l-.668-.928a4.856,4.856,0,0,1,.936-2.2h.655l.361-.55h1.026l.439.609c.049-.417.082-.7.119-1.024.322-.535.744-.12,1.141-.241l.377.591.469-1.591-.982-1.749,1.118-1.974c.32-.309.667-.1,1.075-.177l.443-.579h1.332l.367-.647h3.115l.321-.567h3.436l.394-.629h4.819l.372-.591.43.685.635-.576.3.417.35-.508.351.547c.076-.126.158-.26.239-.4.043-.065.082-.186.128-.186q3.458-.013,6.9-.007l.256-.452c.045-.053.091-.148.136-.148,3.225-.007,6.45,0,9.645,0l.336-.591h5.228c.065-.281.106-.455.147-.591.892-.037,1.784-.1,2.675-.183.024,0,.044-.133.066-.2a2.418,2.418,0,0,0-2.742.386,2.757,2.757,0,0,0-.513-.033l-.362-.591c-.376-.241-.491.427-.826.659l-.641-.618h-3.753l-.327.581h-9l-.3.535a1.394,1.394,0,0,1-1.2-.127c-.011-.251-.022-.527-.032-.761.066-.117.107-.251.148-.251,1.842-.01,3.682-.009,5.518-.009l.378-.616.36.57.3-.533.375.508H535.7c.144-.059.245-.787.636-.538l.358.56.361-.591h12.092l.367-.591.3.538.375-.5h1.42l.29.513.362-.532.352.554.241-.406a.752.752,0,0,1,.3-.179q5.788-.013,11.563-.007l.363-.573.358.542c.4.251.491-.508.881-.612l.5.558.3-.459h37.1l.294.519.368-.582h1.024l.361.591h.679l.362-.569h2.428l.286.5.565-.612.53.618.34-.533h.677l.359.578.433-.684.616.569.506-.548.52.6.527-.662.516.715.431-.681.752.7h4.029c.065.279.106.452.146.626h-.857c-.125.2-.245.4-.367.591l-.252-.443a30.834,30.834,0,0,0-7.848.12c.025.072.043.185.082.208a.653.653,0,0,0,.313.133c2.009.007,4.019,0,5.988,0l.343.6h3.461l.361.637h4.5l.359.635h5.191l.312.551h2.049l.384.626h1.369l.379.625h2.405l.3.535c.556.182,1.183-.033,1.8.117l.3.536h2.423l.334.591.363-.517.361.55h1.739l.439.912c-.03.071-.082.306-.14.309-.687.037-1.376.035-2.064.061-.042,0-.082.134-.12.2.078.514.35.3.525.434.2.359.409.718.632,1.115l.373-.554h1.718l.361.591h1.022l.381.626h.663l.4.628h1.006l.462,1.566-.291.566c.233.5.543.188.826.3l.727-1.222h.687c.4.65.088,1.055-.2,1.564a1.222,1.222,0,0,0,1.262.185l.42-.579c.037.43.061.708.088,1.034l-.665.412.254.839c-.245.443-.554.028-.782.235l-.432-.684-.145.869a2.939,2.939,0,0,1,1.069,1.39,1.715,1.715,0,0,0-.6.393c-.185.251-.331.547-.613.422-.37-.369-.051-1.105-.245-1.644-.164-.362-.409-.09-.623-.168v-1.594l-.4-.269c-.433.251-.524,1.158-.97,1.254-.376.081-.551.591-.707,1.1-.039.965.684,1.062.691,1.956h-.56a7.453,7.453,0,0,1-.136.765q-.139.44-.307.848l.485.789.518-.857v-1.545l.321.232v1.968c-.035.276-.472.425-.217,1.33l.349.652c.356-.126.444-.815.931-1.095h.483l.4-.652a10.77,10.77,0,0,1,.491,1.151c.178.573.265,1.245.468,1.785a9.365,9.365,0,0,0,.736,1.33h1.087l.565,1.256h.484c.051.25.1.514.186.914l-.745,1.009v1.408c-.115.222-.227.443-.334.646l.322.634a3.479,3.479,0,0,0,.18,1.523c.118-.443.225-.852.339-1.284l.469,1.625-.271.55.327.632v1.217c-.095.1-.187.284-.279.285-1.371.018-2.742.013-4.044.013l-.372.657h-1.478c.065.739.415.954.6,1.412-.053.123-.107.359-.164.36-.918.024-1.836.016-2.753.016-.121.433-.235.842-.378,1.356l-1.334-1.211-1.359,1.222-.36-1.358h-.366c-.293.391-.116.944-.178,1.5l-.445.841-.794.163c-.048.086-.124.157-.124.229-.008.811,0,1.625,0,2.426l-.339.656.5.886.366-.591c.281,0,.573,0,.8-.019.107.275.2.591.3.6.254.013.546.219.772-.241-.286-.652-.685-.223-1.075-.362a16.169,16.169,0,0,0,.512-1.665l.526-.328.092-1.42c.234-.454.542-.131.808-.238l.377.618h.723l.19.934-1.091,1.566v.876c.23.485.536.241.805.281a4.678,4.678,0,0,0,.691.007h.839c.055-.838-.282-.443-.58-1.182.049.259,0-.106-.092-.424-.038-.129-.187-.148-.286-.225V202.5l-.409-.764.675-.205c.046.408.077.683.113,1l.8,1.409.54.189v1.956l.525.971h.7c.416-.635.017-1.535.23-2.237l.292-.21v1.5l.362.684-.8,1.229c.119.36.235.66.322.985s.148.68.217,1c.344.217.379.185.587-.51.1-.066.262-.106.274-.207.047-.366-.106-.427-.274-.4-.034-.647.387-.7.461-1.273l.773,1.284h.766c.025.338.052.687.078,1.034a3.234,3.234,0,0,0-2.291,2.114l-.918-.8c-.557.718.072,1.884-.435,2.511l-.491-.864c.126-.4.5-.609.229-1.42-.372-.35-.894-.043-1.5-.167l-.452.807c-.1,1.173.5,1.26.592,2.08l-.359.681c-.67.675-1.118-.9-1.938-.239l-.392.5-.56-.739H646.1l-.449.6c-.461.016-.589-1-1.064-.479-.027.2-.065.47-.108.771l.561.886c.491.462.858-.516,1.325-.607l.393.646.362-.591c.486-.176.727,1.115,1.451.415l.236-.318.561.591.551-.666.387.951-.573.492c.082.514.363.27.53.443a4.165,4.165,0,0,1,.334.479l.3-.526.434.654h1.632l-1.555.795.7.6c-.219.813-.777-.052-1.053.783a3.455,3.455,0,0,0,1.685.191,2.432,2.432,0,0,1,1.676.347,3.334,3.334,0,0,1-1.7.263l-.655.867c.629.739,1.249-.028,1.787.591l-.321.683.677.566v.643l-.975.886h-.875l-.4.629h-3.431l-.381.626h-7.26l-.327.573c-1,.109-2.08-.028-3.155.069l-.308.544h-7.273l-.364.643h-12.46l-.36.635H578.9l-.317.56h-11.08l-.349-.548-.532.714-.564-.762H532.876l-.313-.554h-5.537l-.366-.646h-2.077l-.327-.579h-2.495c-.281-.616-.6-1.33-.86-1.888H519.38c-.409-.677-.067-1.064.174-1.5V222.67c.434-.591.641-1.717,1.345-1.612a1.327,1.327,0,0,0-.5-1.117c-.346-.095-.457-.245-.515-.886a2.607,2.607,0,0,0-.467-.969c-.665-.217-.441.8-.7,1.145l-.37-.551h-1.017c-.191.124-.245.686-.535.591-.038-.168-.06-.462-.117-.485-.207-.083-.241.188-.229.485a.181.181,0,0,0-.233.08.673.673,0,0,0-.106.384c-.026.411.015.8.339.759.04.171.075.491.12.493.491.04.808,1.127,1.577.582l.4-.687-.391-.851.518-.185c.43.591.025,1.386.2,2.014l.362,1h-.825c-.666.969.327,1.386.117,2.144-.386.461-.387.462-.828-.148l-.536.591-.725-.75-.542.643a2.019,2.019,0,0,1-.125-.659,1.7,1.7,0,0,1,.659-1.217c.056.389.031.861.334.443a3.626,3.626,0,0,0-.334-.443c.146-.886-.351-1.47-.47-2.294a10.457,10.457,0,0,0-.307-1.148,1.191,1.191,0,0,1-.507-.343c-.186-.276-.344-.51-.594-.4l-1.012-1.8-.353.49c-.367.1-.767.27-1.042-.508h-1.047l-.38.591-.475-1.073v-1.133l-.71-.937v-1.671l-1.1-1.6.191-.969.389.618.358-.558.5.886v.62l.857,1.477c.195-.111.245-.666.529-.566-.012.618.314.8.5,1.145.075.137.3.022.424.022a3.417,3.417,0,0,0-.176-2.186c.245-.412.547-.092.814-.213.258-.739.327-1.715,1.057-2.087l-.779-.461c-.073-.352-.146-.7-.226-1.086-.092.148-.213.239-.22.36-.016.378-.019.758-.01,1.138-.259.529-.567.21-.843.316l-.375-.613h-1.367l-.362-.591-.361.551c-.219-.387-.4-.991-.631-1.049-.363-.092-.548-.646-.868-.739a1.828,1.828,0,0,0-.533-.009l-.382.612h-.32a1.49,1.49,0,0,0-.344.009c-.047.012-.082.136-.128.183-.32.324-.641.64-.966.962l-.27-.477H504l-1.039-1a6.613,6.613,0,0,0,.942-1.754,3.94,3.94,0,0,1,.663-1.588c.386-.08.525.241.456.934l.521.832h1.1l.237-1.182.4.631h1.043l.483-.913-.648-.557c.066-.381.384-.476.327-.971.534.21.862-.635,1.309-.8-.11-.479-.206-.972-.339-1.433A.214.214,0,0,0,509.2,201c-.056-.389-.031-.861-.334-.443a3.638,3.638,0,0,0,.334.443c-.018.294-.025.591-.02.886-.213.36-.456.761-.688,1.182a1,1,0,0,0,0,.3h-.907c-.061.325-.127.677-.193,1.034a.582.582,0,0,1-.959-.061c.1-.211.2-.417.3-.631-.1-.4-.448-.617-.312-1.232l.344-.647V200.3a.447.447,0,0,0,.327-.086c.056.389.031.861.334.443a3.642,3.642,0,0,0-.334-.443,6.019,6.019,0,0,0,.337-.886c-.381-.672-.781-1.378-1.227-2.163-.237.753-.052,1.575-.209,2.278a3.8,3.8,0,0,0-.254,1c-.016.3.12.532.332.462a5.752,5.752,0,0,1-.137,1.8l-.372-.523-.362.533c-.1-.394-.21-.789-.308-1.157a3.221,3.221,0,0,0-.535.65c-.056-.389-.031-.861-.334-.443a3.446,3.446,0,0,0,.334.446Zm138.325,3.042c.268-.134.536-.09.3-.625a.656.656,0,0,0-.109.486c-.268.134-.536.09-.3.625A.673.673,0,0,0,642.672,205.252ZM513.287,191.562c.077.474.052.947.353.533-.094-.148-.188-.284-.275-.192-.077-.474-.052-.947-.353-.533.094.142.189.285.275.192Zm131.56-10.833c.222-.112.534.3.663-.359-.458-.267-.458-.267-.627.414l-.068-.12-.283.425.109.192a2.131,2.131,0,0,0,.2-.553Zm-133.9,11.786c-.077-.474-.052-.947-.353-.533a1.173,1.173,0,0,0,.314.362v1.545l.995.864v-1.562l-.474-.848a.526.526,0,0,0-.484.171Zm2.715,21.228c.573-.108.2,1.058.554,1.222.265-.106.573.214.8-.228.015-.2.029-.386.045-.591-.259-.92-.837-1.034-1.34-1.613-.023.443-.042.829-.046,1.211-.354.362-.354.362-.2,1.172.367-.231.137-.782.185-1.173Zm3.682-23.757c.327-.25.631-.7.906-.644.381.069.563-.459.857-.554l.245.431h3.9l.5-.956-.164-.8H523.2l-.369.607h-5.171c-.164.392-.461.591-.536,1.238.046.162.12.4.21.681Zm-2.808.6c.414-1.148,1.017-.414,1.447-.886l.844-.776-.139-.829-.68.69-.434-.715h-1.02l-.358.573-.327-.486-.578.634-.44-.629a1.409,1.409,0,0,1-1.162.684c-.021.007-.031.135-.043.189l.472.869h.69l.358.581.374-.591c.344.041.72-.2.993.693Zm3.232,19.576c-.322.238-.516.377-.709.524-.367.279-.554-.4-.893-.521-.026.3-.051.567-.072.811a9.4,9.4,0,0,1,.615,1.114,6.993,6.993,0,0,1,.227,1.12h.807c.082.443.153.8.187.985l.614-.666c-.02-.668-.032-1.053-.042-1.355a3.765,3.765,0,0,1-.737-2.009Zm129.327-23.933c-.26.1-.561-.208-.878.329.159.409-.181,1.046.2,1.5h1.021l.358-.578.387.6c.232-.028.457-.044.68-.092.045-.009.082-.134.131-.222-.372-.545-.584-1.452-1.145-1.588l-.4.629Zm-127.715,26.3c.392-.081.79.179,1.186-.214a5.088,5.088,0,0,1-.305-.886c-.073-.443.1-.994-.191-1.352-.378.078-.776-.182-1.171.21v1.346c.177.328.331.616.482.9Zm124.365-9.978c.039-.855-.5-.072-.573-.623l-.191-1.034c-.312.126-.61-.186-.912.332.018.374.036.845.068,1.313.006.081.071.148.1.208.469,0,.922,0,1.375-.009.043-.008.085-.123.131-.191Zm10.446-12.324a2.841,2.841,0,0,1-.119.8l1.212-1.393c-.114-.652.074-1.217-.245-1.566-.264.106-.573-.217-.8.225a1.4,1.4,0,0,0,.29,1.282ZM643.97,176.452a2.719,2.719,0,0,0,.478-1.081c-.253-.148-.308-.813-.65-.759-.785,1.034-.852,1.288-.491,1.839Zm5.891,11.615h.736a2.366,2.366,0,0,1,.3-.591c.147-.148.441.2.464-.629-.609,0-1.215-.01-1.82.016-.059,0-.115.23-.171.353Zm-9.689,14.674c.267-.109.573.21.812-.213-.032-.6-.313-.321-.491-.433-.32-.564-.642-1.139-.97-1.7-.018-.031-.078.016-.119.027-.073.815-.073.815.771,2.319Zm12.314-14.93c-.038-.335-.069-.612-.143-1.271l-.573,1.234a15.349,15.349,0,0,0,1.4,1.505,1.4,1.4,0,0,0,.288-.233c-.154-.87-.7-.783-.973-1.238ZM512.538,205.184c-.923.01-.923.01-1.3.482a1.716,1.716,0,0,0,.524.121c.383-.044.781.189,1.146-.161a2.554,2.554,0,0,0-.13-1.709c-.067.375-.131.714-.235,1.265Zm-3.369-.326c.193.281.3.739.693.873,0-.7.009-1.365-.01-2.031,0-.1-.133-.186-.206-.279-.141.409-.475.554-.474,1.434ZM645.188,200.6l-.473-.835c-.312-.035-.646-.337-.937.276a2.052,2.052,0,0,1,.593.366c.178.2.291.591.562.489Zm1.4-23.878c.164.326.286.755.573.839l.409-.786-.474-.954ZM515.107,211.243c-.058-.533-.087-.807-.131-1.208l-.648.214.107.993Zm32.384-48.5c.835.279.835.266,1.078-.16a.667.667,0,0,0-1.078.16Zm101.274,17.526c.2-.511.479-.685.518-1.2a.335.335,0,0,0-.334-.192.468.468,0,0,0-.3.313c.03.276.069.613.121,1.078Zm-5.351,19.293c-.713-.52-.712-.505-.964,0a2.382,2.382,0,0,0,.5.1,2.183,2.183,0,0,0,.464-.1Zm2.475,13.872c-.292-.511-.757-.511-1.049,0,.292.512.756.513,1.049,0Zm-128.615,2.832a1.3,1.3,0,0,0,.052-1.306l-.383.1Zm121.407-41.123.219-.021c.021-.27.049-.541.055-.814,0-.066-.082-.208-.11-.2-.082.041-.216.134-.219.219A7.151,7.151,0,0,0,638.681,175.141Zm1.691-.222c-.314-.4-.534-.573-.677.09.2.331.394.31.677-.09Zm9.366,2.868c0,.129.007.259.009.387a3,3,0,0,0,.462.1c.038,0,.118-.148.11-.194-.024-.148-.076-.381-.124-.386a1.349,1.349,0,0,0-.458.095Zm.992,2.024c-.079-.206-.208-.329-.347-.329s-.268.123-.347.329c.079.206.208.329.347.329S650.651,180.017,650.73,179.811Zm1.085,9.592.01.387a3.01,3.01,0,0,0,.462.1c.038,0,.118-.148.11-.2-.024-.148-.076-.381-.123-.386a1.354,1.354,0,0,0-.459.1ZM517.31,223.57c.224-.556.327-.944-.051-1.2a1.227,1.227,0,0,0,.048,1.2Zm4.845-12.275a1.11,1.11,0,1,0,.185.611.967.967,0,0,0-.185-.611Zm120.616-13.148c.079.206.208.329.347.329s.268-.123.347-.329c-.079-.208-.21-.332-.349-.33s-.27.127-.348.336Zm8.355-.8.01.387a3.012,3.012,0,0,0,.462.1c.038,0,.118-.148.11-.2-.024-.148-.076-.381-.124-.386a1.434,1.434,0,0,0-.462.1Zm-13.5-22.953.124.217a2.755,2.755,0,0,0,.108-.411c.007-.05-.07-.133-.108-.2-.046.139-.087.269-.127.4Zm14.017-.306-.223.217c.039.068.082.2.114.191a1,1,0,0,0,.232-.191Zm-9,1.658.123-.217a.955.955,0,0,0-.232-.191c-.029-.012-.075.123-.114.191Zm-65.341.483-.124-.394c-.038.068-.115.148-.108.2a2.787,2.787,0,0,0,.108.411Zm68.7.129.223-.217c-.038-.068-.082-.2-.114-.191a1.006,1.006,0,0,0-.232.19Zm.173,4.15-.124-.394c-.038.068-.115.148-.108.2a2.775,2.775,0,0,0,.108.411c.038-.061.076-.129.122-.211Zm-105.215,3.668-.124-.394c-.038.068-.115.148-.108.2a2.78,2.78,0,0,0,.108.411c.038-.062.076-.129.122-.211Zm-6.649,1.529-.223.217c.038.068.082.2.114.191a.992.992,0,0,0,.232-.191ZM526.6,187.97l.223-.217c-.038-.068-.082-.2-.114-.191a.993.993,0,0,0-.232.191Zm-17.829,4.156c-.04-.129-.082-.261-.123-.394-.038.068-.115.148-.108.2a2.783,2.783,0,0,0,.108.411Zm10.26.217c-.038.068-.115.148-.108.2a2.766,2.766,0,0,0,.108.411c.038-.068.115-.148.108-.2a2.815,2.815,0,0,0-.1-.411Zm-4.9.7-.123.217a.955.955,0,0,0,.232.191c.029.012.075-.123.114-.191Zm-4.919,2.139.123.217a2.729,2.729,0,0,0,.108-.411c.007-.05-.07-.133-.108-.2-.038.133-.078.266-.119.394Zm-1.384,1.223.124.217a2.725,2.725,0,0,0,.108-.411c.007-.05-.07-.133-.108-.2Zm134.188,1.222-.123-.395c-.038.068-.115.148-.108.2a2.766,2.766,0,0,0,.108.411Zm-.938,3.492.124.394c.039-.068.115-.148.108-.2a2.764,2.764,0,0,0-.108-.411ZM513.37,204.177l.123.394c.039-.068.115-.148.108-.2a2.782,2.782,0,0,0-.108-.411Zm133.6.787.124.217a2.737,2.737,0,0,0,.108-.411c.007-.05-.07-.133-.108-.2Zm-125.389,5.318-.123-.217a2.745,2.745,0,0,0-.108.411c-.007.05.07.133.108.2Zm-5.957.918.123-.217a.954.954,0,0,0-.232-.191c-.029-.012-.075.123-.114.191Zm132.284.306-.123-.217a2.745,2.745,0,0,0-.108.411c-.007.05.069.133.108.2Zm-132.854.7c-.038-.068-.082-.2-.114-.191a.993.993,0,0,0-.232.191c.038.068.082.2.114.191a.948.948,0,0,0,.238-.183Zm4.55,3.756.124.217a2.735,2.735,0,0,0,.108-.411c.006-.05-.07-.133-.108-.2Z" transform="translate(0 0)" fill="#ffc000"/>
    <path id="Path_33093" data-name="Path 33093" d="M696.2,173.311a4.771,4.771,0,0,0,.024-.625l.637-.247.924,1.2-.248.314c-.029.271-.064.6-.1.976-.2.022-.471.132-.571.049-.468-.394-.889-.842-1.378-1.32l-.837.5-.563-.806h-.7c-.046-.215-.1-.445-.142-.66l.809-.311-.479-.836.746-.4c.159.293.323.6.489.9l-.27.288c.3.15.6.273.876.443s.422.536.784.536c.069.242.038.562.408.281a1.972,1.972,0,0,0-.409-.282Z" transform="translate(-35.77 5.565)" fill="#ffc000"/>
    <path id="Path_33094" data-name="Path 33094" d="M528.508,162.587l-.448.4-.359-.351h-2.637l-.316.309-.708-.411-.679.456h-.769c-.346-.251-.314-.528-.021-.811l.443.393.384-.375h8l.631-.505.933.533.629-.421c.263.139.231.381.146.621-.064.065-.112.157-.161.157C531.881,162.589,530.189,162.587,528.508,162.587Z" transform="translate(-1.006)" fill="#ffc000"/>
    <path id="Path_33095" data-name="Path 33095" d="M518.133,163c-.048.116-.095.232-.157.383h-5.1l-.383.375c-.466.193-1.019.007-1.552.07.049-.117.065-.293.152-.339.281-.148.589-.249,1.13-.465h1.765l.7-.479.947.513.61-.442.426.385Z" fill="#ffc000"/>
    <path id="Path_33096" data-name="Path 33096" d="M692.928,171.913l-1.078.761.565.972v.741l-1.043,1.02c-.243-.3-.721-.443-.634-1.015l.8-.382c.243-.485-.275-.7-.453-.935.555-.911.89-1.256,1.369-1.371C692.547,171.679,692.68,171.8,692.928,171.913Z" transform="translate(-35.77 5.833)" fill="#ffc000"/>
    <path id="Path_33097" data-name="Path 33097" d="M651.386,161.76h.624l.447-.4c.108.106.207.2.375.366h4.234a.533.533,0,0,1,.1.816h-.959l-.371-.363h-4.271C651.485,161.995,651.435,161.877,651.386,161.76Z" transform="translate(-28.372)" fill="#ffc000"/>
    <path id="Path_33098" data-name="Path 33098" d="M694.535,180.8h1.5l.63.7-.739.456c-.171.473-.007.793-.42.868-.084-.232-.17-.468-.263-.727l-.966-.1c-.16-.156-.16-.156.256-.587Z" transform="translate(-35.77 10.153)" fill="#ffc000"/>
    <path id="Path_33099" data-name="Path 33099" d="M660.268,162.466c.032-.237.063-.468.1-.783l.531.483.433-.4.365.357c.707.2,1.543-.106,2.374.155C663.422,162.671,663.091,162.685,660.268,162.466Z" transform="translate(-33.234)" fill="#ffc000"/>
    <path id="Path_33100" data-name="Path 33100" d="M648.425,161.346c.883,0,1.766-.012,2.649.009a.316.316,0,0,1,.312.4h-.614l-.435.4-.473-.427h-1.287Z" transform="translate(-27.417)" fill="#ffc000"/>
    <path id="Path_33101" data-name="Path 33101" d="M502.3,182.31l-.916.179-.357.787h-.444c-.448-.37.244-.446.211-.721a5.908,5.908,0,0,1-.006-.724l.2-.2C501.223,181.985,501.641,182.009,502.3,182.31Z" transform="translate(0 10.48)" fill="#ffc000"/>
    <path id="Path_33102" data-name="Path 33102" d="M522.018,162.747c-.213.171-.265.248-.317.249q-1.044.012-2.087,0c-.05,0-.1-.09-.148-.138C520.014,162.533,520.014,162.533,522.018,162.747Z" fill="#ffc000"/>
    <path id="Path_33103" data-name="Path 33103" d="M506.712,164.243a2.239,2.239,0,0,1-1.6.723c.014-.367.374-.48.549-.723Z" fill="#ffc000"/>
    <path id="Path_33104" data-name="Path 33104" d="M510.059,176.184v.8l-.687.129c-.049-.258-.094-.489-.149-.775Z" transform="translate(0 7.664)" fill="#ffc000"/>
    <path id="Path_33105" data-name="Path 33105" d="M682.231,165.838v.8l-.687.129c-.049-.258-.094-.489-.149-.775Z" transform="translate(-35.77)" fill="#ffc000"/>
    <path id="Path_33106" data-name="Path 33106" d="M506.715,164.16c.54-.5,1.1-.252,1.659-.2C507.868,164.418,507.256,164.109,506.715,164.16Z" fill="#ffc000"/>
    <path id="Path_33107" data-name="Path 33107" d="M503.474,181.685c.415.035.19.378.293.555.092.157.3.251.612.5l-.882.13a1.1,1.1,0,0,1-.023-1.185Z" transform="translate(0 10.401)" fill="#ffc000"/>
    <path id="Path_33108" data-name="Path 33108" d="M691.92,169.976l1.02.188c-.341.254-.467.574-.865.637C692.04,170.613,692.006,170.43,691.92,169.976Z" transform="translate(-35.77 4.63)" fill="#ffc000"/>
    <path id="Path_33109" data-name="Path 33109" d="M687.781,172.1c-.019.25-.037.494-.056.744-.471.062-.469-.425-.787-.44C687.112,171.9,687.5,172.184,687.781,172.1Z" transform="translate(-35.77 5.651)" fill="#ffc000"/>
    <path id="Path_33110" data-name="Path 33110" d="M687.736,175c.059-.37.095-.6.143-.9.231.217.381.342.511.484a1.32,1.32,0,0,1,.155.278c-.116.047-.229.1-.348.137a2.71,2.71,0,0,1-.461,0Z" transform="translate(-35.77 6.646)" fill="#ffc000"/>
    <path id="Path_33111" data-name="Path 33111" d="M498.674,184.107v-.579c.219-.4.512-.2.884-.25C499.286,183.752,499.083,184.045,498.674,184.107Z" transform="translate(0 11.093)" fill="#ffc000"/>
    <path id="Path_33112" data-name="Path 33112" d="M518.98,203.556h-.593c-.364-.219-.343-.484-.1-.778a1.114,1.114,0,0,1,.693.778Z" transform="translate(0 22.412)" fill="#ffc000"/>
    <path id="Path_33113" data-name="Path 33113" d="M658.122,161.966c.347-.271.581-.285.828-.061C658.776,162.355,658.507,162.234,658.122,161.966Z" transform="translate(-32.897)" fill="#ffc000"/>
    <path id="Path_33114" data-name="Path 33114" d="M518.1,163.06c.285-.482.285-.482.846-.3C518.782,163.188,518.4,162.9,518.1,163.06Z" fill="#ffc000"/>
    <path id="Path_33115" data-name="Path 33115" d="M510.942,163.829c-.25.424-.25.424-.81.242C510.289,163.629,510.67,163.9,510.942,163.829Z" fill="#ffc000"/>
    <path id="Path_33116" data-name="Path 33116" d="M684.324,167.061a2.916,2.916,0,0,1-.561.065c-.058,0-.122-.164-.151-.261-.009-.031.089-.133.135-.132.189.007.377.042.565.066C684.317,166.886,684.32,166.974,684.324,167.061Z" transform="translate(-35.77)" fill="#ffc000"/>
    <path id="Path_33117" data-name="Path 33117" d="M689.44,173.977a.636.636,0,0,1,.832-.116C690.079,174.356,689.811,174.235,689.44,173.977Z" transform="translate(-35.77 6.414)" fill="#ffc000"/>
    <path id="Path_33118" data-name="Path 33118" d="M509.038,177.9a.492.492,0,1,1-.228.415.492.492,0,0,1,.228-.415Z" transform="translate(0 8.481)" fill="#ffc000"/>
    <path id="Path_33119" data-name="Path 33119" d="M507.769,178.7c.277.339.291.568.062.81C507.372,179.334,507.495,179.071,507.769,178.7Z" transform="translate(0 8.866)" fill="#ffc000"/>
    <path id="Path_33120" data-name="Path 33120" d="M518.98,202.108a.515.515,0,1,1-.424-.223.515.515,0,0,1,.424.223Z" transform="translate(0 22.412)" fill="#ffc000"/>
    <path id="Path_33121" data-name="Path 33121" d="M521.094,200.246a1.427,1.427,0,0,1-.017.553c-.057.126-.265.186-.406.275v-.828Z" transform="translate(0 22.412)" fill="#ffc000"/>
    <path id="Path_33122" data-name="Path 33122" d="M514.326,196.107v-.828c.4-.03.447.236.415.514a.327.327,0,0,1-.415.314Z" transform="translate(0 16.93)" fill="#ffc000"/>
    <path id="Path_33123" data-name="Path 33123" d="M514.326,195.28c-.433-.245-.433-.245-.247-.792C514.531,194.641,514.249,195.014,514.326,195.28Z" transform="translate(0 16.528)" fill="#ffc000"/>
    <path id="Path_33124" data-name="Path 33124" d="M503.539,191.968a.492.492,0,1,1-.228.415.492.492,0,0,1,.228-.415Z" transform="translate(0 15.318)" fill="#ffc000"/>
    <path id="Path_33125" data-name="Path 33125" d="M504.174,191.348a.515.515,0,1,1-.424-.223.515.515,0,0,1,.424.223Z" transform="translate(0 14.785)" fill="#ffc000"/>
    <path id="Path_33126" data-name="Path 33126" d="M507.982,190.107a.515.515,0,1,1-.424-.223.515.515,0,0,1,.424.223Z" transform="translate(0 14.187)" fill="#ffc000"/>
    <path id="Path_33127" data-name="Path 33127" d="M503.75,184.106c.078-.266-.2-.639.247-.792C504.183,183.862,504.183,183.862,503.75,184.106Z" transform="translate(0 11.103)" fill="#ffc000"/>
    <path id="Path_33128" data-name="Path 33128" d="M659.7,161.819l.151.147a1.289,1.289,0,0,1-.284.129c-.035.008-.092-.083-.139-.129Z" transform="translate(-32.97)" fill="#ffc000"/>
    <path id="Path_33129" data-name="Path 33129" d="M664.862,162.44l-.151.147a1.256,1.256,0,0,1-.132-.278c-.008-.034.085-.09.132-.136C664.763,162.263,664.813,162.353,664.862,162.44Z" transform="translate(-35.77)" fill="#ffc000"/>
    <path id="Path_33130" data-name="Path 33130" d="M509.189,163.562c-.049.087-.1.177-.15.267-.047-.046-.14-.1-.132-.136a1.283,1.283,0,0,1,.132-.278Z" fill="#ffc000"/>
    <path id="Path_33131" data-name="Path 33131" d="M499.4,168.842l.369-.423C500.057,168.781,499.73,168.75,499.4,168.842Z" transform="translate(0 7.498)" fill="#ffc000"/>
    <path id="Path_33132" data-name="Path 33132" d="M499.638,168.748l-.369.423C498.983,168.809,499.31,168.839,499.638,168.748Z" transform="translate(0 7.808)" fill="#ffc000"/>
    <path id="Path_33133" data-name="Path 33133" d="M691.622,172.221l-.432-.361C691.56,171.58,691.529,171.9,691.622,172.221Z" transform="translate(-35.77 5.451)" fill="#ffc000"/>
    <path id="Path_33134" data-name="Path 33134" d="M503.6,177.012l-.273-.147c.047-.046.1-.137.139-.129a1.337,1.337,0,0,1,.284.129C503.7,176.91,503.656,176.956,503.6,177.012Z" transform="translate(0 7.822)" fill="#ffc000"/>
    <path id="Path_33135" data-name="Path 33135" d="M506.337,178.842l-.432-.361C506.274,178.2,506.243,178.521,506.337,178.842Z" transform="translate(0 8.644)" fill="#ffc000"/>
    <path id="Path_33136" data-name="Path 33136" d="M506.712,179.14q-.439.017-.423-.414Q506.727,178.711,506.712,179.14Z" transform="translate(0 8.803)" fill="#ffc000"/>
    <path id="Path_33137" data-name="Path 33137" d="M506.663,179.025l.432.361C506.726,179.666,506.757,179.346,506.663,179.025Z" transform="translate(0 8.958)" fill="#ffc000"/>
    <path id="Path_33138" data-name="Path 33138" d="M694.263,179.495l-.15-.147a1.288,1.288,0,0,1,.284-.129c.035-.008.092.083.139.129C694.443,179.4,694.351,179.447,694.263,179.495Z" transform="translate(-35.77 9.014)" fill="#ffc000"/>
    <path id="Path_33139" data-name="Path 33139" d="M694.583,180.911l-.432-.361C694.521,180.27,694.49,180.59,694.583,180.911Z" transform="translate(-35.77 9.641)" fill="#ffc000"/>
    <path id="Path_33140" data-name="Path 33140" d="M506.35,181.476c.049-.087.1-.177.15-.267.047.046.14.1.132.136a1.281,1.281,0,0,1-.132.278Z" transform="translate(0 9.999)" fill="#ffc000"/>
    <path id="Path_33141" data-name="Path 33141" d="M507.346,182.865a1.257,1.257,0,0,1,.132.278c.008.034-.085.09-.132.136a1.259,1.259,0,0,1-.132-.278C507.206,182.967,507.3,182.911,507.346,182.865Z" transform="translate(0 10.797)" fill="#ffc000"/>
    <path id="Path_33142" data-name="Path 33142" d="M496.607,184.636l-.432-.361C496.545,183.995,496.514,184.315,496.607,184.636Z" transform="translate(0 11.437)" fill="#ffc000"/>
    <path id="Path_33143" data-name="Path 33143" d="M498.792,184.059l-.369.423C498.137,184.12,498.464,184.151,498.792,184.059Z" transform="translate(0 11.374)" fill="#ffc000"/>
    <path id="Path_33144" data-name="Path 33144" d="M496.511,184.4l.432.361C496.573,185.046,496.6,184.726,496.511,184.4Z" transform="translate(0 11.55)" fill="#ffc000"/>
    <path id="Path_33145" data-name="Path 33145" d="M508.827,187.417H508.4c.046-.114.073-.313.143-.328C508.8,187.033,508.842,187.216,508.827,187.417Z" transform="translate(0 12.805)" fill="#ffc000"/>
    <path id="Path_33146" data-name="Path 33146" d="M508.4,187.417q.016.429-.423.414Q507.965,187.4,508.4,187.417Z" transform="translate(0 12.989)" fill="#ffc000"/>
    <path id="Path_33147" data-name="Path 33147" d="M503.689,188.511l-.151.147a1.258,1.258,0,0,1-.132-.278c-.008-.034.085-.09.132-.136Z" transform="translate(0 13.387)" fill="#ffc000"/>
    <path id="Path_33148" data-name="Path 33148" d="M687.226,190.361l.369-.423C687.881,190.3,687.554,190.269,687.226,190.361Z" transform="translate(-35.77 14.206)" fill="#ffc000"/>
    <path id="Path_33149" data-name="Path 33149" d="M678.31,190.668l-.273-.147c.047-.046.1-.137.139-.129a1.358,1.358,0,0,1,.284.129Z" transform="translate(-35.77 14.379)" fill="#ffc000"/>
    <path id="Path_33150" data-name="Path 33150" d="M683.231,190.267l-.368.423C682.576,190.328,682.9,190.358,683.231,190.267Z" transform="translate(-35.77 14.364)" fill="#ffc000"/>
    <path id="Path_33151" data-name="Path 33151" d="M688.19,193.624c-.206.015-.393-.026-.335-.274.016-.068.219-.094.335-.14Z" transform="translate(-35.77 15.78)" fill="#ffc000"/>
    <path id="Path_33152" data-name="Path 33152" d="M685.44,198.176a1.258,1.258,0,0,1,.132.278c.008.034-.085.09-.132.136a1.264,1.264,0,0,1-.132-.278C685.3,198.279,685.393,198.223,685.44,198.176Z" transform="translate(-35.77 14.131)" fill="#ffc000"/>
    <path id="Path_33153" data-name="Path 33153" d="M518.931,203.441l.432.361C518.994,204.082,519.025,203.762,518.931,203.441Z" transform="translate(0 22.412)" fill="#ffc000"/>
    <path id="Path_33154" data-name="Path 33154" d="M524.206,194.512l.272.147c-.047.046-.1.137-.139.129a1.338,1.338,0,0,1-.284-.129Z" transform="translate(0 16.357)" fill="#ffc000"/>
  </g>
</svg>
