<svg xmlns="http://www.w3.org/2000/svg" width="220.491" height="39.239" viewBox="0 0 220.491 39.239">
  <g id="Group_25156" data-name="Group 25156" transform="translate(279.794 108.529) rotate(180)">
    <path id="Path_32770" data-name="Path 32770" d="M129.353,95.426c.4.119.485-.4.891-.553h1.6l.461-.461a3.04,3.04,0,0,1,2.126.176l-2.309,1.162c.419.506.939.126,1.336.319l.658-.614h1.122l.79-.79-.608-1.073c.663-.744,1.062-.318,1.487.132l.586-.506.422.373c.571.347,1.241.079,1.874.173.24.844,1.126,1.47.788,2.455l.618.667v2.265l.839.822h1.077l.67.6c.367.216,1.042-.415,1.378.457a27.979,27.979,0,0,1-3.192.122l-.336.965c-1.1.535-1.815-.428-2.707-.7v-3.98c-.577-.452-.941-1.159-1.747-1.515l-.873.68h-1.65l-1.1,1.1c-.972-.315-1.7.813-2.9.564l-.727,1.162h-2.006c-.66.59-1.261,1.18-1.92,1.694-.337.263-.848.628-1.162.537-1.032-.3-1.575,1.22-2.54.522l-.706.656h-1.131a15.929,15.929,0,0,1-1.41,1.389,10.973,10.973,0,0,1-1.606.851h-1.324l-2.052,1.17h-.987l-1.07,1.07h-1.589l-.755.585h-1.507a2.256,2.256,0,0,1-1.849.609l-.619-.55h-2.785l-.459-.419c-.567-.349-1.237-.079-1.886-.173a1.727,1.727,0,0,0-1.144-.636,1.17,1.17,0,0,1-.768-.769,1.424,1.424,0,0,0-.6-1.113v-2.109c.334-.648.572-1.12.818-1.588A5.811,5.811,0,0,0,99.7,99.52c.086-.578.836-.813.613-1.462a1.424,1.424,0,0,0,.568-1.468c.772.063.41-.681.686-.963.527-.538,1.076-1.054,1.6-1.561,0-.236-.069-.545.011-.591.551-.314.376-1.076.8-1.366.887-.6.85-1.855,1.786-2.389.159-.778,1.006-1.307.8-2.217a.441.441,0,0,0,.557-.431c.043-.381-.024-.746-.557-.705v-.838l.553-.606c-.172-.093-.323-.184-.482-.259-.838-.392-1.262.713-2.033.567-.3.539-.929.5-1.381.779-.373.228-.774.411-1.167.605a4.455,4.455,0,0,1-.72.315,4.911,4.911,0,0,0-2.785,1.493c-.269.263-.51.553-.31.334-1.324.769-2.22.963-2.828,1.672a5.61,5.61,0,0,1-1.974,1.4,4.708,4.708,0,0,0-1.6.973,3.035,3.035,0,0,1-1.586.9c-.664.108-.926.582-1.32.94-.487.442-.916.948-1.333,1.387-.9-.111-1.15.637-1.751,1.087l-1.082.058c-.628.327-1.07,1.026-1.9,1.337-.725.273-1.215,1.15-1.84,1.727a3.286,3.286,0,0,1-.711.326,6.318,6.318,0,0,0-1.593.912c-.473.477-1.188.59-1.557,1.011-.752.857-2,.988-2.608,2-.981-.207-1.642.6-2.509.771a5.015,5.015,0,0,1-2.221,1.5,3.9,3.9,0,0,1-2.258.723c-.118-.013-.265.247-.439.421l-.577-.477c-.278.166-.572.478-.865.477s-.606-.305-.908-.476L64.14,108a5.992,5.992,0,0,0-1.444-.59,7.441,7.441,0,0,1-1.227-.468c-.9-.266-1.455-.662-1.571-1.62-.018-.148-.259-.263-.38-.408-.031-.037,0-.129.007-.2l.4-.4-.622-.931.685-.9v-1.631l.57-.617c-.3-1.081.86-1.82.645-2.874-.01-.051.146-.12.187-.2q.723-1.4,1.43-2.812c.038-.076-.034-.24.011-.273,1.374-1.009,1.391-2.965,2.773-3.963a6.1,6.1,0,0,1,.834-1.924c.23-.555.849-.839,1.038-1.566.16-.615.972-.982,1.178-1.778.145-.56.819-.851,1.059-1.545.248-.72,1.083-1.238,1.63-1.811V80.4c.631-.631,1.314-1.4,2.092-2.066s.858-1.849,1.811-2.349c.053-.482.1-.929.149-1.359.356-.147.676-.288,1-.413.68-.262.376-1.377,1.044-1.434.838-.071.911-.923,1.631-1.049l1.2,2.391,1.2-1.2c.06.413.137.933.236,1.609l1.92-1.83,1.038.271-1.4.877v.882L81.61,76.384v1.1L79.8,79.075a1.137,1.137,0,0,1-.331,1.191,3.087,3.087,0,0,0-.358.95l-.67.045-.537,1.13h-.6a9.471,9.471,0,0,1-.6,1.159c-.212.306-.717.522-.748.815a1.872,1.872,0,0,1-.639,1.169A6.473,6.473,0,0,0,73.3,88.1c-.748.355-.767,1.2-1.192,1.779-.311.422-.272,1.055-.811,1.366-.436.252-.371.876-.632,1.136-1.569,1.558-1.924,3.79-3.179,5.508.055,1.192-1.065,2.146-.574,3.6l.612.665a1.394,1.394,0,0,0,.388-.16c.755-.637,1.871-.615,2.543-1.4.668.241.872-.631,1.452-.605s.778-.492,1.07-.814c.392-.434,1.067-.236,1.406-.774a1.414,1.414,0,0,1,.842-.65c.664-.08.906-.618,1.3-.977.35-.317.851-.145,1.215-.559.318-.362,1.028-.305,1.335-.832.26-.445.783-.4,1.157-.621.777-.45,1.048-1.608,2.183-1.586l1.706-1.7h1.217l1.869-2.248c.554-.035.851.02.9-.069.321-.541,1.093-.348,1.368-.8.474-.783,1.5-.712,1.983-1.4.5-.714,1.544-.564,2.014-1.378.184-.319.739-.435,1.137-.618a8.254,8.254,0,0,0,3.662-2.572,1.361,1.361,0,0,0,.376,0c3.29-1.652,6.577-3.31,10.077-5.075h1.425l.664-.584h3.372a4.3,4.3,0,0,1,1.631,2.117c.028.119.481.141.754.212.42.586.108,1.262.2,1.892l-.577.624v1.1l-.56.619c0,.312.1.655-.02.867-.354.61-.435,1.39-1.038,1.837-.48.355-.5.974-.827,1.351-.427.493-.392,1.181-.946,1.629a6.77,6.77,0,0,0-1.031,1.537c-.455.666-.918,1.327-1.4,1.971s-.689,1.468-1.384,2c-.328.249-.122.91-.617,1.148-.032.841-.712,1.242-1.227,1.8v1.1l-.932.982-.323.717c-.373.559-.465.632-.466.707-.011.749-.006,1.5-.006,2.193l.846.852.609-.568c.7.124,1.208-.341,1.783-.491.613-.16.953-.813,1.74-.7a2.325,2.325,0,0,0,1.655-.676c.485-.464,1.3-.287,1.6-.969h1.987c-.127.222-.262.439-.378.666a.913.913,0,0,0-.116.47h-1.476c-1.009.935-.989.952-.416,1.876.073-1.289,1.471-.968,1.892-1.876a3.15,3.15,0,0,1,.483,0,.457.457,0,0,0,.568-.429c.044-.38-.017-.753-.556-.711a1.533,1.533,0,0,1,1.04-1.132,5.792,5.792,0,0,0,1.628-.746c.476-.462,1.283-.274,1.579-.949.747.326.955-.89,1.726-.613.09.032.343-.392.462-.535h2.083c-.066.16-.126.457-.2.46-.713.028-1.1.488-1.515,1.1a9.11,9.11,0,0,0,2.353.14l2.2-1.131V98a3.557,3.557,0,0,0-1.7,1.159.962.962,0,0,0,1.228.248c.757-.5,1.925-.51,2.177-1.666.942.19,1.48-.671,2.269-.882.022-.006,0-.166-.076-.222.361-.093.8-.052.416-.548a4.5,4.5,0,0,0-.416.548c-.361-.032-.8-.032-1.249-.032-.383.318-.87.554-.943,1.136h-.719l-.98-.58V95.783c.655-.4.426-1.372,1.128-1.736.506-.262,1.018-.512,1.524-.765.592.659-.1.946-.381,1.349a2.645,2.645,0,0,0,.08.795c-.361.093-.8.052-.416.548a4.579,4.579,0,0,0,.418-.548ZM108.261,84.668c-.581.336-.581.336-.331,1.088.606-.211.227-.723.173-1.023.441-.126.88-.084.5-.58a1.636,1.636,0,0,0-.342.515Zm12.786,13.621c-.624.624-1.284,1.281-1.935,1.948-.018.019.054.127.116.263h1.217l1.5-1.372c-.075-.285-.141-.538-.2-.765Zm-3.518,2.95a1.522,1.522,0,0,0,.062,1.613l.992-.174-.667-.7c-.048-.5-.048-.5-.387-.739Zm-7.28,2.161a1.217,1.217,0,0,0,0,1.721,1.217,1.217,0,0,0,0-1.721Zm4.994,1.264c.366-.44.788-.618.877-1.078-.324-.269-.636-.277-1.052.09.045.254.1.567.175.988Zm-35.3-28.88.2.366c.063-.063.188-.14.178-.187a1.73,1.73,0,0,0-.178-.381Zm-7.667,12.21.2-.2a1.8,1.8,0,0,0-.381-.178c-.047-.01-.124.114-.187.178ZM120.269,101.5l.2.2a1.8,1.8,0,0,0,.178-.381c.01-.047-.114-.124-.178-.187Z" fill="#76b82a"/>
    <path id="Path_32771" data-name="Path 32771" d="M250.8,73.31a20.906,20.906,0,0,0,2.239-.079c.093.361.052.8.548.416a4.5,4.5,0,0,0-.548-.416c.118-.394-.4-.485-.52-.8V71.307l.818-.818.6.535.416-.416a3.923,3.923,0,0,1,1.885-.094l.455.455.91-.571,1.071.682h4.944l.512.512h3.376l.727.678,1.078-.609.476.476h2.272c.232.232.377.49.5.48,1.032-.091,1.794.891,3,.663l.963,1.259.708-.643.821.821v1.354l1.743,1.407c-.05.372-.073.551-.1.731a5.2,5.2,0,0,1-.481.207c-.085.028-.251.039-.272,0-.342-.634-1.2-.427-1.652-1.082h-2.366c-.462-1.042-1.73-.188-2.192-1.142h-3.177c-.6-.151-.763-.82-1.406-.589l-.585.522-.6-.546h-2.807l-.589-.532c-.213.178-.4.34-.6.5l-.531-.531H254.5l-.532-.532-.613.512H250.54l-.58-.531-.591.541h-1.127l-.815-.815c.4-.626,1.011-.227,1.518-.294a12.354,12.354,0,0,1,1.63-.016C250.672,73.633,250.739,73.471,250.8,73.31Zm9.969-1.165a.694.694,0,0,0-.036,1.161c.246-.323.684-.492.771-1.026Zm-6.072.489-.015-.36c-.253-.034-.505-.081-.759-.091-.062,0-.194.138-.182.18.039.134.124.354.2.359a3.745,3.745,0,0,0,.759-.088Z" fill="#76b82a"/>
    <path id="Path_32772" data-name="Path 32772" d="M242.866,73.618l-1.158.534c.1.1.167.225.234.226,1.119.012,2.237.009,3.472.009a3.116,3.116,0,0,1,.522-.448,1.366,1.366,0,0,1,.532-.061c.414.2.433.533.28.933-.045.045-.111.169-.178.17-.936.013-1.871.009-2.8.009l-.637.587h-5.064l-.62.573c-.729,0-1.479,0-2.229-.008-.07,0-.139-.111-.273-.227.409-.421,1.11-.389,1.434-.908h3.928l.8-.8a3.378,3.378,0,0,1-.712-1.362l-.768-.2c-.366-.4-.093-.888-.188-1.385l.691-.255a4.641,4.641,0,0,1,1.877,2.306h.845Z" fill="#76b82a"/>
    <path id="Path_32773" data-name="Path 32773" d="M190.215,89.378l1.866-.855c.119.385.2.636.267.865-.164.154-.306.387-.414.373-.989-.135-1.684.533-2.467.912a.934.934,0,0,1-1.1.04l.431-.581c.152-.592.315-1.231-.391-1.7.082-.131.133-.309.251-.386a18.842,18.842,0,0,1,1.817-1.092c.227-.113.558-.018,1.1-.018l.731.837c-.326.448-.735.243-1.086.3s-.751-.151-1.181.276Z" fill="#76b82a"/>
    <path id="Path_32774" data-name="Path 32774" d="M245.694,71.038V71.9l1.53.753.351-1,.625-.059.823,1.5c-.066.066-.131.189-.2.189-1.12.012-2.239.008-3.39.008l-.587-.541-.593.549h-1.4c.19-.909,1.027-1.069,1.665-1.442l-.5-.573.777-.777C245.1,70.695,245.4,70.867,245.694,71.038Z" fill="#76b82a"/>
    <path id="Path_32775" data-name="Path 32775" d="M237.17,72.766l.683,1.368a3.147,3.147,0,0,1-2.2.232,1.339,1.339,0,0,1,.35-.811c-.363-.444-.864-.156-1.365-.26l-.758-.712c.047-.485.508-.649.753-.976h1.2c.1.3.2.626.349,1.073Z" fill="#76b82a"/>
    <path id="Path_32776" data-name="Path 32776" d="M203.1,81.829c0-.092-.033-.246.005-.266.977-.509,1.961-1,3.06-1.56.324.649.617,1.238.911,1.826h-2.554c-.436.414-.225.8-.286,1.136-.533.041-.534-.324-.579-.705a.441.441,0,0,0-.557-.431Z" fill="#76b82a"/>
    <path id="Path_32777" data-name="Path 32777" d="M203.1,81.829c-.851.448-1.418,1.424-2.562,1.028-.275.471-.56.957-.686,1.172h-1.78c.076-.209.111-.343.17-.464.355-.726,1.371-.468,1.746-1.168H201.1l.6-.568Z" fill="#76b82a"/>
    <path id="Path_32778" data-name="Path 32778" d="M172.929,92.758c-.069.612-.532.354-.821.47-.573.608-.037,1.437-.355,2.239l-1.119-.152.656-.724V93.91l-1.534-.268c-.044-.088-.123-.192-.1-.216.367-.452.878-.142,1.357-.262l.59-.551C172.028,92.686,172.514,92.479,172.929,92.758Z" fill="#76b82a"/>
    <path id="Path_32779" data-name="Path 32779" d="M144.607,103.434c0,.069.028.232,0,.246-1,.406-1.241.4-2.87,0l1.156-.533a3.985,3.985,0,0,1-.538-.674c-.068-.137.019-.352.036-.535.484-.5,1.017-.02,1.639-.386-.272.749-.431,1.186-.646,1.776Z" fill="#76b82a"/>
    <path id="Path_32780" data-name="Path 32780" d="M250.8,73.31h-.9c-.087-.218-.184-.458-.258-.645.369-1.045,1.447-1,2.084-1.566.451.388.054.9.237,1.244C251.789,73.013,250.706,72.4,250.8,73.31Z" fill="#76b82a"/>
    <path id="Path_32781" data-name="Path 32781" d="M169.074,93.423l-.9.9c-.738,0-1.492,0-2.246-.008-.07,0-.139-.114-.215-.181a1.669,1.669,0,0,1,.8-.9l.4.4C167.551,93.432,168.123,92.892,169.074,93.423Z" fill="#76b82a"/>
    <path id="Path_32782" data-name="Path 32782" d="M231.031,76.552c-.032-.655.5-.256.733-.4l.6-.568h1.246c.057.291.119.608.2,1.014a5.216,5.216,0,0,1-.892.114C232.291,76.668,231.64,76.885,231.031,76.552Z" fill="#76b82a"/>
    <path id="Path_32783" data-name="Path 32783" d="M207.363,81.831l.8,1.575-.766.714-.677-.089c-.41-.383-.113-.881-.239-1.434.165-.135.513-.281.561-.5C207.1,81.855,207.076,81.735,207.363,81.831Z" fill="#76b82a"/>
    <path id="Path_32784" data-name="Path 32784" d="M222.41,74.659v.66c-.651.444-1.369.24-2.156.187-.05-.249-.1-.5-.166-.821a2.75,2.75,0,0,1,2.322-.026Z" fill="#76b82a"/>
    <path id="Path_32785" data-name="Path 32785" d="M214.811,80.675c-.828.051-.926-.256-.921-.927l1.048-.572.562.673C215.482,80.242,214.9,80.3,214.811,80.675Z" fill="#76b82a"/>
    <path id="Path_32786" data-name="Path 32786" d="M157.1,99.434c-.063.465.278,1.16-.65,1.137-.485-.079-.655-.559-1.009-.808.1-.11.2-.305.314-.314C156.2,99.412,156.652,99.434,157.1,99.434Z" fill="#76b82a"/>
    <path id="Path_32787" data-name="Path 32787" d="M224.588,74.064c-.013.588-.47.313-.755.39l-.692.66c-.07-.4-.126-.716-.174-.992a1.523,1.523,0,0,1,1.621-.058Z" fill="#76b82a"/>
    <path id="Path_32788" data-name="Path 32788" d="M236.479,71.676h1.71c-.013.577-.5.728-.731,1.066-.454.131-.2-.412-.476-.5C236.841,72.2,236.75,71.994,236.479,71.676Z" fill="#76b82a"/>
    <path id="Path_32789" data-name="Path 32789" d="M81.232,69.29l.817.149c-.02.582-.607.64-.709,1.076l-.817-.149C80.543,69.784,81.13,69.726,81.232,69.29Z" fill="#76b82a"/>
    <path id="Path_32790" data-name="Path 32790" d="M145.792,101.22v-1.1l.923-.176c.066.354.126.671.2,1.064C146.541,101.076,146.287,101.125,145.792,101.22Z" fill="#76b82a"/>
    <path id="Path_32791" data-name="Path 32791" d="M229.5,73.3c.827-.767,1.383-.712,1.959-.33C230.815,73.328,230.815,73.331,229.5,73.3Z" fill="#76b82a"/>
    <path id="Path_32792" data-name="Path 32792" d="M228.1,73.594a1.217,1.217,0,0,1-1.721,0,1.217,1.217,0,0,1,1.721,0Z" fill="#76b82a"/>
    <path id="Path_32793" data-name="Path 32793" d="M204.237,82.965h.795c.549.293.268.687.343,1.186C204.724,83.786,204.321,83.513,204.237,82.965Z" fill="#76b82a"/>
    <path id="Path_32794" data-name="Path 32794" d="M169.494,95.777l-1.323.264a.709.709,0,0,1-.107-1.056C168.581,94.993,168.632,95.591,169.494,95.777Z" fill="#76b82a"/>
    <path id="Path_32795" data-name="Path 32795" d="M99.837,97.352c-.046-.6-.065-.841-.082-1.059.419-.389.784-.389,1.123.035.121.433-.381.191-.471.435C100.352,96.914,100.17,97.018,99.837,97.352Z" fill="#76b82a"/>
    <path id="Path_32796" data-name="Path 32796" d="M157.286,97.305c-.086-.432-.148-.745-.2-1a.707.707,0,0,1,1.049-.113C158.073,96.669,157.617,96.83,157.286,97.305Z" fill="#76b82a"/>
    <path id="Path_32797" data-name="Path 32797" d="M98.147,100.491a3.819,3.819,0,0,1-.089-.753c0-.078.225-.164.359-.2.043-.012.183.119.18.182-.01.254-.057.506-.091.759Z" fill="#76b82a"/>
    <path id="Path_32798" data-name="Path 32798" d="M125.3,96.026c-.122.189-.205.468-.377.545a2.012,2.012,0,0,1-.759.023c.122-.189.205-.468.377-.545A2.013,2.013,0,0,1,125.3,96.026Z" fill="#76b82a"/>
    <path id="Path_32799" data-name="Path 32799" d="M181.031,91.023a3.819,3.819,0,0,1,.753-.089c.078,0,.164.225.2.359.012.043-.119.183-.182.18-.254-.01-.506-.057-.759-.091C181.041,91.263,181.036,91.143,181.031,91.023Z" fill="#76b82a"/>
    <path id="Path_32800" data-name="Path 32800" d="M106.557,87.508c-.533.041-.6-.324-.557-.705a.441.441,0,0,1,.557-.431Z" fill="#76b82a"/>
    <path id="Path_32801" data-name="Path 32801" d="M212.295,80.047a3.819,3.819,0,0,1-.089-.753c.005-.078.225-.164.359-.2.043-.012.183.119.18.182-.01.254-.057.506-.091.759C212.535,80.036,212.415,80.042,212.295,80.047Z" fill="#76b82a"/>
    <path id="Path_32802" data-name="Path 32802" d="M208.211,79.273a.682.682,0,1,1,.569.306A.682.682,0,0,1,208.211,79.273Z" fill="#76b82a"/>
    <path id="Path_32803" data-name="Path 32803" d="M219.614,75.3c-.465.372-.78.391-1.112.083C218.737,74.765,219.1,74.93,219.614,75.3Z" fill="#76b82a"/>
    <path id="Path_32804" data-name="Path 32804" d="M250.281,70.755c-.465.372-.78.391-1.112.083C249.4,70.222,249.765,70.387,250.281,70.755Z" fill="#76b82a"/>
    <path id="Path_32805" data-name="Path 32805" d="M245.535,71.1l.495-.58C246.415,71.019,245.976,70.978,245.535,71.1Z" fill="#76b82a"/>
    <path id="Path_32806" data-name="Path 32806" d="M84.207,71.524l-.366-.2c.063-.063.14-.188.187-.178a1.73,1.73,0,0,1,.381.178Z" fill="#76b82a"/>
    <path id="Path_32807" data-name="Path 32807" d="M229.951,73.245l-.495.58C229.071,73.329,229.51,73.371,229.951,73.245Z" fill="#76b82a"/>
    <path id="Path_32808" data-name="Path 32808" d="M239.933,73.512l-.2.366c-.063-.063-.188-.14-.178-.187a1.73,1.73,0,0,1,.178-.381Z" fill="#76b82a"/>
    <path id="Path_32809" data-name="Path 32809" d="M229.143,75.216l-.2.366c-.063-.063-.188-.14-.178-.187a1.778,1.778,0,0,1,.178-.381Z" fill="#76b82a"/>
    <path id="Path_32810" data-name="Path 32810" d="M224.965,76.15a1.8,1.8,0,0,1,.178.381c.01.047-.114.124-.178.187a1.8,1.8,0,0,1-.178-.381C224.777,76.29,224.9,76.213,224.965,76.15Z" fill="#76b82a"/>
    <path id="Path_32811" data-name="Path 32811" d="M222.251,77.918l.495-.58C223.131,77.834,222.692,77.792,222.251,77.918Z" fill="#76b82a"/>
    <path id="Path_32812" data-name="Path 32812" d="M222.568,77.789l-.495.58C221.689,77.873,222.128,77.914,222.568,77.789Z" fill="#76b82a"/>
    <path id="Path_32813" data-name="Path 32813" d="M211.116,81.419l-.58-.5C211.032,80.539,210.991,80.979,211.116,81.419Z" fill="#76b82a"/>
    <path id="Path_32814" data-name="Path 32814" d="M208.414,81.343l.366.2c-.063.063-.14.188-.187.178a1.73,1.73,0,0,1-.381-.178C208.275,81.482,208.338,81.418,208.414,81.343Z" fill="#76b82a"/>
    <path id="Path_32815" data-name="Path 32815" d="M210.987,81.1l.58.5C211.071,81.982,211.113,81.543,210.987,81.1Z" fill="#76b82a"/>
    <path id="Path_32816" data-name="Path 32816" d="M196.368,85.034l.2-.366c.063.063.188.14.178.187a1.73,1.73,0,0,1-.178.381Z" fill="#76b82a"/>
    <path id="Path_32817" data-name="Path 32817" d="M201.763,84.75l.2.2a1.8,1.8,0,0,1-.381.178c-.047.01-.124-.114-.187-.178Z" fill="#76b82a"/>
    <path id="Path_32818" data-name="Path 32818" d="M194.664,85.438l.2-.2a1.8,1.8,0,0,1,.178.381c.01.047-.114.124-.178.187Z" fill="#76b82a"/>
    <path id="Path_32819" data-name="Path 32819" d="M200.343,85.6l.2-.366c.063.063.188.14.178.187a1.729,1.729,0,0,1-.178.381Z" fill="#76b82a"/>
    <path id="Path_32820" data-name="Path 32820" d="M185.578,89.577l.2-.366c.063.063.188.14.178.187a1.729,1.729,0,0,1-.178.381Z" fill="#76b82a"/>
    <path id="Path_32821" data-name="Path 32821" d="M172.8,94.241l-.366-.2c.063-.063.14-.188.187-.178a1.73,1.73,0,0,1,.381.178Z" fill="#76b82a"/>
    <path id="Path_32822" data-name="Path 32822" d="M125.14,96.091l.5-.58C126.02,96.007,125.58,95.965,125.14,96.091Z" fill="#76b82a"/>
    <path id="Path_32823" data-name="Path 32823" d="M162.7,96.392l-.2.2a1.8,1.8,0,0,1-.178-.381c-.01-.047.114-.124.178-.187Z" fill="#76b82a"/>
    <path id="Path_32824" data-name="Path 32824" d="M156.942,99.5l.495-.58C157.822,99.414,157.383,99.373,156.942,99.5Z" fill="#76b82a"/>
    <path id="Path_32825" data-name="Path 32825" d="M152.923,101.055l-.366-.2c.063-.063.14-.188.187-.178a1.73,1.73,0,0,1,.381.178Z" fill="#76b82a"/>
    <path id="Path_32826" data-name="Path 32826" d="M141,102.923l.2.2a1.8,1.8,0,0,1-.381.178c-.047.01-.124-.114-.187-.178Z" fill="#76b82a"/>
    <path id="Path_32827" data-name="Path 32827" d="M144.448,103.474l.495-.58C145.328,103.39,144.889,103.348,144.448,103.474Z" fill="#76b82a"/>
    <path id="Path_32828" data-name="Path 32828" d="M187,88.725l.2.2a1.8,1.8,0,0,1-.381.178c-.047.01-.124-.114-.187-.178Z" fill="#76b82a"/>
  </g>
</svg>
