<svg xmlns="http://www.w3.org/2000/svg" width="38.998" height="38.998" viewBox="0 0 38.998 38.998">
  <g id="instagram_5_" data-name="instagram (5)" transform="translate(0 0)">
    <path id="Path_54" data-name="Path 54" d="M214.72,210.86a3.86,3.86,0,1,1-3.86-3.86A3.86,3.86,0,0,1,214.72,210.86Zm0,0" transform="translate(-191.361 -191.361)" fill="#76b82a"/>
    <path id="Path_55" data-name="Path 55" d="M154.006,138.153a3.835,3.835,0,0,0-2.2-2.2,6.406,6.406,0,0,0-2.15-.4c-1.221-.056-1.588-.068-4.679-.068s-3.458.012-4.679.067a6.41,6.41,0,0,0-2.15.4,3.836,3.836,0,0,0-2.2,2.2,6.409,6.409,0,0,0-.4,2.15c-.056,1.221-.068,1.587-.068,4.679s.012,3.458.068,4.679a6.406,6.406,0,0,0,.4,2.15,3.835,3.835,0,0,0,2.2,2.2,6.4,6.4,0,0,0,2.15.4c1.221.056,1.587.067,4.679.067s3.459-.012,4.679-.067a6.4,6.4,0,0,0,2.15-.4,3.835,3.835,0,0,0,2.2-2.2,6.412,6.412,0,0,0,.4-2.15c.056-1.221.067-1.588.067-4.679s-.012-3.458-.067-4.679a6.4,6.4,0,0,0-.4-2.15Zm-9.027,12.776a5.946,5.946,0,1,1,5.946-5.946A5.946,5.946,0,0,1,144.978,150.928Zm6.181-10.738a1.39,1.39,0,1,1,1.39-1.39A1.39,1.39,0,0,1,151.16,140.19Zm0,0" transform="translate(-125.479 -125.483)" fill="#76b82a"/>
    <path id="Path_56" data-name="Path 56" d="M19.5,0A19.5,19.5,0,1,0,39,19.5,19.5,19.5,0,0,0,19.5,0ZM30.628,24.115a8.215,8.215,0,0,1-.52,2.718,5.725,5.725,0,0,1-3.275,3.275,8.221,8.221,0,0,1-2.718.52c-1.194.054-1.575.068-4.616.068s-3.422-.013-4.617-.068a8.221,8.221,0,0,1-2.718-.52,5.725,5.725,0,0,1-3.275-3.275,8.213,8.213,0,0,1-.52-2.718C8.315,22.921,8.3,22.54,8.3,19.5s.013-3.422.068-4.616a8.216,8.216,0,0,1,.52-2.718A5.729,5.729,0,0,1,12.165,8.89a8.222,8.222,0,0,1,2.718-.52C16.077,8.315,16.458,8.3,19.5,8.3s3.422.013,4.616.068a8.224,8.224,0,0,1,2.718.52,5.727,5.727,0,0,1,3.275,3.275,8.214,8.214,0,0,1,.521,2.718c.054,1.194.067,1.575.067,4.616S30.683,22.921,30.628,24.115Zm0,0" transform="translate(0 0)" fill="#76b82a"/>
  </g>
</svg>
