<svg xmlns="http://www.w3.org/2000/svg" width="43.5" height="41" viewBox="0 0 43.5 41">
  <g id="Group_25553" data-name="Group 25553" transform="translate(0 0.5)">
    <path id="right-arrow_2_" data-name="right-arrow (2)" d="M20,0A20,20,0,1,1,0,20,20,20,0,0,1,20,0ZM13.781,20.5,24.495,31.219a.714.714,0,0,0,1.01-1.01L15.3,20,25.505,9.791a.714.714,0,0,0-1.01-1.01L13.781,19.495a.715.715,0,0,0,0,1.01Zm0,0" transform="translate(3)" fill="none" stroke="#111" stroke-width="1" opacity="0.8"/>
    <path id="right-arrow_2_2" data-name="right-arrow (2)" d="M20,0A20,20,0,1,1,0,20,20,20,0,0,1,20,0ZM13.781,20.5,24.495,31.219a.714.714,0,0,0,1.01-1.01L15.3,20,25.505,9.791a.714.714,0,0,0-1.01-1.01L13.781,19.495a.715.715,0,0,0,0,1.01Zm0,0" fill="#ef7d00" opacity="0.49"/>
  </g>
</svg>
