<svg xmlns="http://www.w3.org/2000/svg" width="38.998" height="38.998" viewBox="0 0 38.998 38.998">
  <path id="linkedin" d="M19.5,0A19.5,19.5,0,1,0,39,19.5,19.5,19.5,0,0,0,19.5,0ZM13.833,29.477H9.084V15.19h4.749ZM11.459,13.239h-.031A2.475,2.475,0,1,1,11.49,8.3a2.476,2.476,0,1,1-.032,4.937Zm19.5,16.238H26.208V21.834c0-1.921-.688-3.231-2.406-3.231a2.6,2.6,0,0,0-2.437,1.737A3.252,3.252,0,0,0,21.21,21.5v7.979H16.461s.062-12.947,0-14.287H21.21v2.023a4.715,4.715,0,0,1,4.28-2.358c3.124,0,5.467,2.042,5.467,6.43Zm0,0" fill="#76b82a"/>
</svg>
