<svg xmlns="http://www.w3.org/2000/svg" width="145" height="117.813" viewBox="0 0 145 117.813">
  <path id="_" data-name="“" d="M76.807,77.943Q76.807,61.78,91.163,37q14.356-25.143,26.2-37l19.381,10.416q-15.074,23.347-18.3,42.025L145,70.4a54.117,54.117,0,0,1-7.178,26.58,65.053,65.053,0,0,1-18.663,20.833Q76.807,110.988,76.807,77.943ZM0,77.943Q0,61.78,14.356,37q14.356-25.143,26.2-37L59.938,10.416q-15.074,23.347-18.3,42.025L68.193,70.4a54.117,54.117,0,0,1-7.178,26.58,65.052,65.052,0,0,1-18.663,20.833Q0,110.988,0,77.943Z" fill="#ef7d00" opacity="0.1"/>
</svg>
