<svg xmlns="http://www.w3.org/2000/svg" width="43.5" height="41" viewBox="0 0 43.5 41">
  <g id="Group_25552" data-name="Group 25552" transform="translate(16787.385 -6282.5)">
    <path id="right-arrow_2_" data-name="right-arrow (2)" d="M20,0A20,20,0,1,0,40,20,20,20,0,0,0,20,0Zm6.219,20.5L15.505,31.219a.714.714,0,0,1-1.01-1.01L24.7,20,14.495,9.791a.714.714,0,0,1,1.01-1.01L26.219,19.495a.715.715,0,0,1,0,1.01Zm0,0" transform="translate(-16786.885 6283)" fill="none" stroke="#111" stroke-width="1"/>
    <path id="right-arrow_2_2" data-name="right-arrow (2)" d="M20,0A20,20,0,1,0,40,20,20,20,0,0,0,20,0Zm6.219,20.5L15.505,31.219a.714.714,0,0,1-1.01-1.01L24.7,20,14.495,9.791a.714.714,0,0,1,1.01-1.01L26.219,19.495a.715.715,0,0,1,0,1.01Zm0,0" transform="translate(-16783.885 6283)" fill="#ef7d00" opacity="0.49"/>
  </g>
</svg>
