<svg xmlns="http://www.w3.org/2000/svg" width="28.059" height="28.059" viewBox="0 0 28.059 28.059">
  <g id="user_1_" data-name="user (1)" transform="translate(0.5 0.5)">
    <g id="Group_2" data-name="Group 2" transform="translate(0)">
      <path id="Path_1" data-name="Path 1" d="M23.1,17.492a13.478,13.478,0,0,0-5.141-3.225,7.822,7.822,0,1,0-8.851,0A13.551,13.551,0,0,0,0,27.059H2.114a11.416,11.416,0,0,1,22.831,0h2.114A13.442,13.442,0,0,0,23.1,17.492ZM13.53,13.53a5.708,5.708,0,1,1,5.708-5.708A5.714,5.714,0,0,1,13.53,13.53Z" transform="translate(0)" fill="#ef7d00" stroke="#ef7d00" stroke-width="1"/>
    </g>
  </g>
</svg>
