<svg xmlns="http://www.w3.org/2000/svg" width="39" height="39" viewBox="0 0 39 39">
  <g id="Layer_2" data-name="Layer 2" transform="translate(4 -4.354)">
    <g id="Color">
      <g id="_02.YouTube" data-name="02.YouTube">
        <g id="Group_32874" data-name="Group 32874" transform="translate(-4 4.354)">
          <path id="Path_53296" data-name="Path 53296" d="M65.46,71.436,72.076,67.6,65.46,63.74Z" transform="translate(-49.268 -48.088)" fill="#76b82a"/>
          <path id="Path_53297" data-name="Path 53297" d="M19.5,0A19.5,19.5,0,1,0,39,19.5,19.5,19.5,0,0,0,19.5,0ZM29.763,22.951a3.882,3.882,0,0,1-3.882,3.885H13.119a3.882,3.882,0,0,1-3.882-3.885v-6.9a3.882,3.882,0,0,1,3.882-3.885H25.881a3.882,3.882,0,0,1,3.882,3.885Z" fill="#76b82a"/>
        </g>
      </g>
    </g>
  </g>
</svg>
